<?xml version="1.0" encoding="UTF-8"?><svg id="Camada_2" xmlns="http://www.w3.org/2000/svg" viewBox="0 0 412.78 412.93"><g id="Arte"><path d="M87.03,16.2C77.81,5.41,63.87,0,45.18,0H0v124.69h46.22c18.45,0,32.17-6.03,41.15-18.12,8.99-12.08,13.48-27.58,13.48-46.49s-4.61-33.07-13.84-43.87ZM43.26,114.54H11.91V10.17h33.28c14.13,0,24.95,4.46,32.49,13.39,7.52,8.93,11.29,21.33,11.29,37.21,0,35.85-15.24,53.76-45.71,53.76Z" style="fill:#fff;"/><path d="M225.29,41.4h-18.56v59.31c0,3.04.06,5.17.17,6.39.12,1.23.5,2.69,1.14,4.38.64,1.69,1.78,2.83,3.41,3.41,1.63.58,3.85.88,6.66.88,1.63,0,4.03-.17,7.18-.53v9.46c-3.62.47-6.83.7-9.63.7-10.86,0-17.11-3.44-18.74-10.33-.7-2.92-1.05-9.52-1.05-19.79v-53.88h-15.94v-9.17h15.94V7.19h10.86v25.04h18.56v9.17Z" style="fill:#fff;"/><path d="M98.25,269.25h-13.14l-57.97-83.71c-7.71-11.21-13.19-20.08-16.46-26.62.58,8.29.88,18.21.88,29.77v80.56H0v-124.69h13.14l58.32,84.59c6.54,9.46,11.97,18.15,16.29,26.09-.58-18.33-.88-29.31-.88-32.92v-77.76h11.38v124.69Z" style="fill:#fff;"/><path d="M177.65,189.56c-7.66-8.63-17.96-12.95-30.91-12.95s-23.5,4.32-31.27,12.95c-7.76,8.65-11.65,20.21-11.65,34.68s3.89,26.18,11.65,34.77c7.76,8.57,18.18,12.88,31.27,12.88s23.4-4.24,30.98-12.7c7.6-8.47,11.4-20,11.4-34.59s-3.83-26.39-11.47-35.03ZM169.67,252.43c-5.6,6.89-13.19,10.33-22.77,10.33s-17.71-3.44-23.37-10.33c-5.66-6.89-8.5-16.28-8.5-28.19s2.87-20.99,8.59-27.92c5.72-6.95,13.36-10.42,22.94-10.42s17.22,3.47,22.94,10.42c5.72,6.93,8.57,16.31,8.57,28.1s-2.79,21.12-8.41,28.01Z" style="fill:#fff;"/><path d="M228.05,188.16h-18.56v57.09c0,3.04.06,5.17.17,6.39.12,1.23.5,2.69,1.14,4.38.64,1.69,1.78,2.83,3.41,3.41,1.63.58,3.85.88,6.66.88,1.63,0,4.03-.17,7.18-.53v9.46c-3.62.47-6.83.7-9.63.7-10.86,0-17.11-3.44-18.74-10.33-.7-2.92-1.05-9.52-1.05-19.79v-51.66h-15.94v-8.93h15.94v-27.49h10.86v27.49h18.56v8.93Z" style="fill:#fff;"/><polygon points="79.51 295.76 11.73 295.76 11.73 340.59 71.98 340.59 71.98 350.75 11.73 350.75 11.73 410.29 0 410.29 0 285.6 79.51 285.6 79.51 295.76" style="fill:#fff;"/><path d="M150.67,330.62c-7.64-8.65-17.95-12.96-30.91-12.96s-23.49,4.32-31.27,12.96c-7.76,8.63-11.63,20.19-11.63,34.67s3.87,26.19,11.63,34.77c7.78,8.59,18.2,12.88,31.27,12.88s23.42-4.24,31-12.7c7.58-8.47,11.38-20,11.38-34.59s-3.83-26.39-11.47-35.02ZM142.7,393.49c-5.6,6.89-13.19,10.33-22.77,10.33s-17.72-3.44-23.39-10.33c-5.66-6.89-8.49-16.29-8.49-28.21s2.85-20.98,8.57-27.92,13.38-10.42,22.94-10.42,17.22,3.47,22.94,10.42c5.72,6.95,8.59,16.32,8.59,28.1s-2.81,21.14-8.41,28.03Z" style="fill:#fff;"/><path d="M240.1,410.29h-10.16v-16.64c-6.66,12.84-17.22,19.26-31.7,19.26-9.57,0-17.13-2.77-22.68-8.32-5.55-5.54-8.32-13.69-8.32-24.43v-59.89h11.03v55.17c0,9.34,1.72,16.32,5.17,20.93,3.44,4.61,9.31,6.92,17.6,6.92,8.76,0,15.64-3.18,20.67-9.54,5.02-6.36,7.53-14.27,7.53-23.73v-49.74h10.86v90.02Z" style="fill:#fff;"/><path d="M258.57,337.27c3.74-6.66,8.09-11.56,13.05-14.71,4.96-3.15,11.24-4.73,18.83-4.73,9.34,0,16.87,2.57,22.59,7.71,5.72,5.14,8.58,12.96,8.58,23.47v61.29h-11.03v-57.79c0-16.7-7.65-25.04-22.94-25.04-8.64,0-15.53,2.89-20.67,8.67-5.14,5.78-7.71,14.27-7.71,25.48v48.69h-11.03v-90.02h10.33v16.99Z" style="fill:#fff;"/><path d="M402.09,285.6v51.49c-5.72-12.96-16.41-19.44-32.05-19.44-12.25,0-22.04,4.32-29.33,12.96-7.3,8.63-10.95,20.19-10.95,34.67s3.65,26.19,10.95,34.77c7.29,8.59,17.19,12.88,29.68,12.88,7.58,0,14.21-1.73,19.87-5.17,5.68-3.44,9.85-8.49,12.54-15.15v17.69h9.98v-124.69h-10.69ZM394.12,393.66c-5.54,6.89-13.1,10.33-22.68,10.33s-16.78-3.5-22.34-10.51c-5.54-7.01-8.31-16.47-8.31-28.37s2.76-20.99,8.31-27.94c5.56-6.95,12.93-10.42,22.16-10.42,10.27,0,18.03,3.74,23.3,11.21,5.25,7.48,7.88,16.59,7.88,27.32,0,12.03-2.78,21.49-8.32,28.38Z" style="fill:#fff;"/><path d="M310.09,116.29c-1.98,0-3.41-.44-4.29-1.32-.87-.87-1.37-1.8-1.49-2.81-.1-.99-.16-2.65-.16-4.98v-49.03c0-8.41-2.96-14.83-8.85-19.28-5.9-4.43-13.97-6.65-24.26-6.65h-35.35v9.17h31.71c.78-.04,1.6-.06,2.42-.06.34,0,.67,0,.99.01,7.21.12,12.73,1.58,16.51,4.36,3.98,2.93,5.96,7.95,5.96,15.06,0,4.33-1.05,7.18-3.15,8.59-.59.35-1.23.67-1.92.96-.71.3-1.37.55-2.03.78-.64.24-1.51.47-2.62.71-1.11.22-2.05.4-2.81.52-.75.12-1.92.27-3.5.44-1.58.18-2.85.33-3.86.43-.99.12-2.53.27-4.64.44-2.1.18-3.73.33-4.89.44-22.31,2.34-33.45,11.62-33.45,27.84,0,7.94,2.6,14.13,7.79,18.57,5.2,4.43,12.4,6.65,21.63,6.65,15.06,0,26.39-6,33.99-18.03,0,5.14.75,9.17,2.28,12.09,1.51,2.91,4.67,4.38,9.45,4.38,3.16,0,6.08-.47,8.77-1.4v-8.41c-1.29.35-2.69.53-4.21.53ZM293.28,90.37c0,8.29-2.97,14.97-8.93,20.06-5.96,5.07-13.2,7.61-21.72,7.61-6.31,0-11.32-1.54-15.06-4.64-3.74-3.09-5.6-7.26-5.6-12.52,0-3.5.78-6.45,2.37-8.84,1.57-2.39,3.9-4.26,7.01-5.6,3.09-1.35,5.84-2.31,8.23-2.9,2.38-.58,5.45-1.11,9.18-1.57.59-.12,1.46-.24,2.63-.35,4.79-.58,8.17-1.05,10.16-1.4,2-.34,4.18-.9,6.58-1.66,2.38-.77,4.11-1.73,5.16-2.9v14.71Z" style="fill:#fff;"/><path d="M184.21,116.29c-1.98,0-3.41-.44-4.29-1.32-.87-.87-1.37-1.8-1.49-2.81-.1-.99-.16-2.65-.16-4.98v-49.03c0-8.41-2.96-14.83-8.85-19.28-5.9-4.43-13.97-6.65-24.26-6.65h-35.35v9.17h31.71c.78-.04,1.6-.06,2.42-.06.34,0,.67,0,.99.01,7.21.12,12.73,1.58,16.51,4.36,3.98,2.93,5.96,7.95,5.96,15.06,0,4.33-1.05,7.18-3.15,8.59-.59.35-1.23.67-1.92.96-.71.3-1.37.55-2.03.78-.64.24-1.51.47-2.62.71-1.11.22-2.05.4-2.81.52-.75.12-1.92.27-3.5.44-1.58.18-2.85.33-3.86.43-.99.12-2.53.27-4.64.44-2.1.18-3.73.33-4.89.44-22.31,2.34-33.45,11.62-33.45,27.84,0,7.94,2.6,14.13,7.79,18.57,5.2,4.43,12.4,6.65,21.63,6.65,15.06,0,26.39-6,33.99-18.03,0,5.14.75,9.17,2.28,12.09,1.51,2.91,4.67,4.38,9.45,4.38,3.16,0,6.08-.47,8.77-1.4v-8.41c-1.29.35-2.69.53-4.21.53ZM167.4,90.37c0,8.29-2.97,14.97-8.93,20.06-5.96,5.07-13.2,7.61-21.72,7.61-6.31,0-11.32-1.54-15.06-4.64-3.74-3.09-5.6-7.26-5.6-12.52,0-3.5.78-6.45,2.37-8.84,1.57-2.39,3.9-4.26,7.01-5.6,3.09-1.35,5.84-2.31,8.23-2.9,2.38-.58,5.45-1.11,9.18-1.57.59-.12,1.46-.24,2.63-.35,4.79-.58,8.17-1.05,10.16-1.4,2-.34,4.18-.9,6.58-1.66,2.38-.77,4.11-1.73,5.16-2.9v14.71Z" style="fill:#fff;"/><path d="M270.81,41.35v.04h-3.41c.78-.04,1.6-.06,2.42-.06.34,0,.67,0,.99.01Z" style="fill:#fff;"/></g></svg>